<mxfile host="app.diagrams.net" modified="2023-09-22T04:19:59.664Z" agent="Mozilla/5.0 (Windows NT 10.0; Win64; x64) AppleWebKit/537.36 (KHTML, like Gecko) Chrome/117.0.0.0 Safari/537.36" etag="jR_GLMnDgHMEuOblseVi" version="21.7.5" type="device">
  <diagram name="PÃ¡gina-1" id="qbURYlXZeZJNLAL3W9JK">
    <mxGraphModel dx="1195" dy="668" grid="1" gridSize="10" guides="1" tooltips="1" connect="1" arrows="1" fold="1" page="1" pageScale="1" pageWidth="827" pageHeight="1169" math="0" shadow="0">
      <root>
        <mxCell id="0" />
        <mxCell id="1" parent="0" />
        <mxCell id="t-wgTpeH0HqDWkriodTE-95" style="edgeStyle=orthogonalEdgeStyle;rounded=0;orthogonalLoop=1;jettySize=auto;html=1;entryX=0.5;entryY=0;entryDx=0;entryDy=0;" edge="1" parent="1" source="t-wgTpeH0HqDWkriodTE-1" target="t-wgTpeH0HqDWkriodTE-91">
          <mxGeometry relative="1" as="geometry" />
        </mxCell>
        <mxCell id="t-wgTpeH0HqDWkriodTE-1" value="int calcularFibonacciRecursion(int n)" style="ellipse;whiteSpace=wrap;html=1;" vertex="1" parent="1">
          <mxGeometry x="299" y="20" width="229" height="70" as="geometry" />
        </mxCell>
        <mxCell id="t-wgTpeH0HqDWkriodTE-86" value="return calcularFibonacciRecursion(n - 1) + calcularFibonacciRecursion(n - 2)" style="ellipse;whiteSpace=wrap;html=1;" vertex="1" parent="1">
          <mxGeometry x="196" y="310" width="436" height="80" as="geometry" />
        </mxCell>
        <mxCell id="t-wgTpeH0HqDWkriodTE-93" style="edgeStyle=orthogonalEdgeStyle;rounded=0;orthogonalLoop=1;jettySize=auto;html=1;entryX=0.5;entryY=0;entryDx=0;entryDy=0;" edge="1" parent="1" source="t-wgTpeH0HqDWkriodTE-91" target="t-wgTpeH0HqDWkriodTE-86">
          <mxGeometry relative="1" as="geometry">
            <Array as="points">
              <mxPoint x="340" y="160" />
              <mxPoint x="340" y="240" />
              <mxPoint x="414" y="240" />
            </Array>
          </mxGeometry>
        </mxCell>
        <mxCell id="t-wgTpeH0HqDWkriodTE-94" style="edgeStyle=orthogonalEdgeStyle;rounded=0;orthogonalLoop=1;jettySize=auto;html=1;entryX=0.5;entryY=0;entryDx=0;entryDy=0;" edge="1" parent="1" source="t-wgTpeH0HqDWkriodTE-91" target="t-wgTpeH0HqDWkriodTE-92">
          <mxGeometry relative="1" as="geometry">
            <Array as="points">
              <mxPoint x="490" y="160" />
            </Array>
          </mxGeometry>
        </mxCell>
        <mxCell id="t-wgTpeH0HqDWkriodTE-91" value="n &amp;lt;= 1" style="rhombus;whiteSpace=wrap;html=1;" vertex="1" parent="1">
          <mxGeometry x="374" y="120" width="80" height="80" as="geometry" />
        </mxCell>
        <mxCell id="t-wgTpeH0HqDWkriodTE-92" value="return n" style="ellipse;whiteSpace=wrap;html=1;" vertex="1" parent="1">
          <mxGeometry x="440" y="210" width="100" height="60" as="geometry" />
        </mxCell>
        <mxCell id="t-wgTpeH0HqDWkriodTE-96" value="V" style="text;html=1;strokeColor=none;fillColor=none;align=center;verticalAlign=middle;whiteSpace=wrap;rounded=0;" vertex="1" parent="1">
          <mxGeometry x="440" y="130" width="60" height="30" as="geometry" />
        </mxCell>
        <mxCell id="t-wgTpeH0HqDWkriodTE-97" value="F" style="text;html=1;strokeColor=none;fillColor=none;align=center;verticalAlign=middle;whiteSpace=wrap;rounded=0;" vertex="1" parent="1">
          <mxGeometry x="330" y="130" width="60" height="30" as="geometry" />
        </mxCell>
      </root>
    </mxGraphModel>
  </diagram>
</mxfile>
